inDegrees=no
num_controls=7
num_derivatives=13
num_iterations=100
num_multipliers=7
num_parameters=0
num_slacks=7
num_states=26
objective=0.497043
objective_accelerations=0.031887
objective_balance=0.003393
objective_effort=0.034969
objective_height=0.421303
objective_ligament=0.005491
solver_duration=1147.624048
status=Solve_Succeeded
success=true
DataType=double
version=3
OpenSimVersion=4.5
endheader
time	/jointset/ground_pelvis/pelvis_tilt/value	/jointset/ground_pelvis/pelvis_tx/value	/jointset/ground_pelvis/pelvis_ty/value	/jointset/hip_r/hip_flexion_r/value	/jointset/hip_r/hip_adduction_r/value	/jointset/hip_r/hip_rotation_r/value	/jointset/back/lumbar_extension/value	/jointset/patellofemoral_r/patellar_flexion_r/value	/jointset/knee_r/knee_flexion_r/value	/jointset/knee_r/knee_adduction_r/value	/jointset/knee_r/knee_rotation_r/value	/jointset/ankle_r/ankle_angle_r/value	/jointset/subtalar_r/subtalar_angle_r/value	/jointset/ground_pelvis/pelvis_tilt/speed	/jointset/ground_pelvis/pelvis_tx/speed	/jointset/ground_pelvis/pelvis_ty/speed	/jointset/hip_r/hip_flexion_r/speed	/jointset/hip_r/hip_adduction_r/speed	/jointset/hip_r/hip_rotation_r/speed	/jointset/back/lumbar_extension/speed	/jointset/patellofemoral_r/patellar_flexion_r/speed	/jointset/knee_r/knee_flexion_r/speed	/jointset/knee_r/knee_adduction_r/speed	/jointset/knee_r/knee_rotation_r/speed	/jointset/ankle_r/ankle_angle_r/speed	/jointset/subtalar_r/subtalar_angle_r/speed	/forceset/tau_hip_flexion_r	/forceset/tau_hip_adduction_r	/forceset/tau_hip_rotation_r	/forceset/tau_knee_flexion_r	/forceset/tau_ankle_angle_r	/forceset/tau_subtalar_angle_r	/forceset/tau_lumbar_extension	lambda_cid13_p0	lambda_cid14_p0	lambda_cid14_p1	lambda_cid14_p2	lambda_cid14_p3	lambda_cid14_p4	lambda_cid14_p5	/jointset/ground_pelvis/pelvis_tilt/accel	/jointset/ground_pelvis/pelvis_tx/accel	/jointset/ground_pelvis/pelvis_ty/accel	/jointset/hip_r/hip_flexion_r/accel	/jointset/hip_r/hip_adduction_r/accel	/jointset/hip_r/hip_rotation_r/accel	/jointset/back/lumbar_extension/accel	/jointset/patellofemoral_r/patellar_flexion_r/accel	/jointset/knee_r/knee_flexion_r/accel	/jointset/knee_r/knee_adduction_r/accel	/jointset/knee_r/knee_rotation_r/accel	/jointset/ankle_r/ankle_angle_r/accel	/jointset/subtalar_r/subtalar_angle_r/accel	gamma_cid13_p0	gamma_cid14_p0	gamma_cid14_p1	gamma_cid14_p2	gamma_cid14_p3	gamma_cid14_p4	gamma_cid14_p5
0.5	-0.08896939300956101	0.05144554102696467	0.8644183959296567	0.6834928203707528	-0.2302612900184524	-0.1329001497897313	-0.3169052551005089	0.6873237290667684	0.6873237290667747	0.04198212064417573	0.174306701124752	0.2636475443119309	0.05645809437284088	-0.2387445049353416	-0.09188340710491742	-0.3239961235384405	1.382540891121398	-0.007279180088963626	0.2562751168397696	-0.6051005276823551	1.664248659137667	1.664248659137533	-0.2799017473584768	-0.0007003768251629636	0.6101079418388953	0.1644167373099428	-0.06902907038356706	-0.01978394940956162	0.008182940762243652	-0.3461506775613172	0.06956859331013332	-0.01155476809204689	0.1311919719041173	-32.04663152903588	-19.98991056430922	-4.686059250019674	-3.170314166798294	3.088149467082608	-670.8164912896059	59.93816307986295	0.05535214132640087	0.2788900938858146	-0.3462486651305258	-0.8487329212780839	-0.05482689926467934	-0.5517121028733724	1.287410871207623	-1.135246305730915	-1.135246305730871	0.3937542234604868	-0.000638159784578686	-0.4731988965417813	-0.06662351501676048	-1.090599179180806e-07	-1.585317721605576e-07	5.179658999766854e-07	-1.246780363635344e-06	4.280672919783561e-08	-2.16969234800161e-07	8.397996471801086e-07
0.51	-0.09135366376368861	0.0505408100338517	0.8611618658287251	0.6972735003030032	-0.2303375442391727	-0.1303640419660292	-0.3228909824040564	0.7039068470696919	0.7039068470697153	0.03920504121478342	0.1742996916944996	0.2697238518346574	0.05809759998835499	-0.2380753366717357	-0.08904880625393476	-0.3272341099626566	1.373392468961364	-0.007971967435113371	0.2509394802071248	-0.5919486826263122	1.652130739808784	1.652130739808702	-0.2754916327251096	-0.0006988286787837591	0.605071083341738	0.1634561503040128	-0.07424551720847879	-0.01794158964482878	0.008847324711186233	-0.3491021554249967	0.06549748815111248	-0.01100105517591591	0.1360588361717571	-31.09972579532504	-21.44422741196224	-4.823906714095606	-3.007059505496271	3.636003268289952	-674.0767882184606	59.7004148448606	0.0778328305513494	0.2878523368197112	-0.3012492656724186	-0.9783080129875924	-0.07671566290320997	-0.5257179687467783	1.343508882760119	-1.286673880666729	-1.286673880659094	0.4680206445883591	0.0007357605734525877	-0.5313101298559881	-0.1150812901305885	-9.35846099319906e-08	-1.257940391195842e-07	5.276286336685098e-07	-9.976416316546537e-07	2.159028309579476e-08	-1.794516800563846e-07	7.349120640846554e-07
0.52	-0.09373021610283205	0.04966484650047202	0.8578752207366303	0.7109566137837378	-0.2304207685354715	-0.127881536213715	-0.3287423037450503	0.7203614640524915	0.7203614640525222	0.03647273904399535	0.1742927346374404	0.2757473146117023	0.05972663873446012	-0.2372008219412231	-0.08612991515826018	-0.3300191217710728	1.363027600816463	-0.008673195205793495	0.2455547025630136	-0.5782193351719976	1.638548455111909	1.638548455111878	-0.2709462956392072	-0.0006899021834318647	0.5995389927024494	0.162323363428105	-0.07946196403339946	-0.01609922988008694	0.009511708660013543	-0.352053633288675	0.0614263829920933	-0.01044734225977622	0.1409257004393882	-30.14434283969974	-22.90292682460931	-4.960075912001391	-2.846866689612878	4.169619230037557	-677.4111683918491	59.52603185799951	0.09642143470770884	0.2957481428241942	-0.2556537419705469	-1.092022118251432	-0.05651498417077464	-0.5615403051666827	1.402911350861852	-1.428119379329297	-1.428119379329197	0.4207987139675108	0.0008375100099763805	-0.572245324968032	-0.1010634890123085	-6.939390769325123e-08	-6.070361677877936e-08	6.196452774783949e-07	-5.17736591323084e-07	-3.042006720751521e-08	-1.01190809636515e-07	5.846648031211908e-07
0.53	-0.09609715898354743	0.0488184134411763	0.8545630163120416	0.7245303429206813	-0.2305107154925049	-0.1254540023138095	-0.3344536580826202	0.7366730461985838	0.7366730461985874	0.03378538261606081	0.1742862669018382	0.2817130507641081	0.06134394613201972	-0.2361599443484577	-0.08314946622603696	-0.3323418450748251	1.351525748046141	-0.009325246120391812	0.240001284533747	-0.5639861517639591	1.62352266754612	1.623522667546038	-0.2664519312274436	-0.0006336061588754433	0.5935168649111824	0.1610927310074519	-0.08428301418343988	-0.01447347667002029	0.01020404099782671	-0.3554793765706382	0.05786651331587108	-0.0100400178078147	0.1454557697337399	-29.18310232521523	-24.21218282353542	-5.143845192568759	-2.667445384165973	4.681283214440091	-680.8004354953772	59.33974564430352	0.1120894784318866	0.3002662918775332	-0.2086059306393634	-1.208141891618977	-0.07089769633804294	-0.5449377947289918	1.443328922343883	-1.576593091493312	-1.576593091500915	0.4747952594643606	0.003494304437368881	-0.6309191385115784	-0.1407972071296851	-4.434138632877789e-08	2.021179344985371e-08	8.207740521122623e-07	7.564954701417241e-08	-1.043969851630884e-07	-8.442515694365098e-09	4.705624386770986e-07
0.54	-0.09845285937694928	0.04800199947589451	0.851229979793203	0.737983278522888	-0.2306074524689287	-0.1230805416427847	-0.3400207191687947	0.752827013539748	0.752827013539737	0.03114517782318917	0.1742794558576482	0.2876158211121408	0.06294760038766535	-0.2349523244808897	-0.08012609635547746	-0.3341855406210364	1.338868893867966	-0.01003119908433236	0.2347400567875833	-0.5493606848931867	1.607025494128751	1.607025494128619	-0.2615159686283351	-0.0007585639039654171	0.586945831827693	0.159592735045283	-0.08910406433350246	-0.01284772345996875	0.01089637333582987	-0.358905119852606	0.05430664363964363	-0.009632693355877825	0.1499858390280747	-28.21675309319103	-25.52739770439795	-5.327947483925403	-2.4887821158466	5.189277404054498	-684.2826203935424	59.18549354536152	0.1297698896681831	0.3043323304914324	-0.1598481904623381	-1.323022399822022	-0.06729539403921184	-0.5031022485460951	1.48136804340855	-1.722396549644983	-1.722396549644991	0.5091183514364754	-0.03541324391928056	-0.6820263834125265	-0.1549361973154871	-1.833536295285423e-08	1.186357009160842e-07	1.142622631062027e-06	7.945892405917642e-07	-2.026773396701022e-07	1.003344170383931e-07	3.964501725097591e-07
0.55	-0.1007957304018233	0.04721603132885405	0.8478808879701893	0.7513042343804702	-0.2307109308718516	-0.120761142079347	-0.3454394303714532	0.768809066746693	0.7688090667466847	0.02855353492177252	0.1742721059099953	0.2934505443911641	0.06453586614355653	-0.2335880523998269	-0.07705907967128188	-0.3355522804270803	1.325134412024813	-0.01066913522293457	0.229160889975732	-0.5343172952478065	1.589167268722783	1.589167268722613	-0.2567732763522207	-0.0007230829374368425	0.5799279714337162	0.1580264617175236	-0.09390679911951434	-0.01126472353487452	0.01151668701008395	-0.3622396278367515	0.05080638889427686	-0.009199734054586772	0.1544932186604824	-27.24636789264219	-26.81635892755949	-5.49396221502019	-2.315696239940447	5.642775691709189	-687.6899484383587	59.05533515062046	0.1448424240972854	0.3091030875316055	-0.1129734090487969	-1.426822492797997	-0.06244157555352479	-0.5821133609229954	1.525463483595775	-1.850216486560794	-1.850216486566538	0.4629785612142179	0.02152435190661435	-0.7223309570493189	-0.1622191675215124	-6.475298838751977e-10	1.794098245172282e-07	1.325750788595456e-06	1.234991552836478e-06	-2.619587368342248e-07	1.666784020650831e-07	3.576749001801496e-07
0.5600000000000001	-0.1031239413945207	0.04646097669868559	0.8445205514424408	0.7644822131363799	-0.2308208684065143	-0.1184968920767148	-0.350705779865958	0.7846060015094795	0.7846060015094721	0.02601054572222206	0.174264809888996	0.2992129560483164	0.06610751991276714	-0.2320203180479219	-0.07394339298107851	-0.3364344815680411	1.310273473532215	-0.01132302543284798	0.2237101446271476	-0.5188883432627313	1.570001805297293	1.570001805297084	-0.2517852282554957	-0.0007477785722008589	0.5724835074533767	0.1562703377091504	-0.09870953390554306	-0.009681723609786117	0.01213700068432479	-0.365574135820899	0.04730613414890776	-0.008766774753306361	0.1590005982928763	-26.27328665674112	-28.11338521937774	-5.662736709759242	-2.140629558246191	6.107854451316505	-691.2185758734565	58.91408025913186	0.1704623438365988	0.3140663316929573	-0.06294045744573804	-1.548313729710989	-0.07048620830145715	-0.4774179558927127	1.558480511347512	-1.983844153549291	-1.983844153549292	0.5581895155585962	-0.04744856417778329	-0.7673471006850856	-0.1929063334382589	7.058474816770602e-09	1.9500420748027e-07	1.342414440429288e-06	1.341149007481749e-06	-2.744413851868799e-07	1.821028498444928e-07	3.613040204558146e-07
0.5700000000000001	-0.1054355636104157	0.0457372544325966	0.8411538174153965	0.7775062126199993	-0.2309372719262261	-0.1162871241952258	-0.3558160660429969	0.8002048680195957	0.8002048680195916	0.02351790458078218	0.1742572175366889	0.3048988347483677	0.06766088799824641	-0.2302768275289062	-0.07079895909917112	-0.3368306164366501	1.294355854087349	-0.01195512817912403	0.2182392766746641	-0.5031240716344156	1.549561905735048	1.549561905734941	-0.2467330819064544	-0.0007697320529222399	0.5646217293194928	0.1543783143778256	-0.1032443328249532	-0.008068029090410725	0.01264104930450406	-0.3689794495941024	0.04397375056930003	-0.008349333412452663	0.1632528857486885	-25.29907972014506	-29.35356905539063	-5.831175014102877	-1.962331750811212	6.581567475580518	-694.6412096766278	58.77119802818444	0.1804021173315741	0.3148907864839618	-0.01565572541444265	-1.639049399592246	-0.05885912485521283	-0.5824669525425611	1.592123565077583	-2.105503789590586	-2.105503789575298	0.4804531595833277	0.02086491722952786	-0.8062063801950043	-0.1907177124052306	1.084030790426954e-08	2.001227122235317e-07	1.340487085729499e-06	1.368702904254911e-06	-2.781803897469797e-07	1.865974585027817e-07	3.814491208350574e-07
0.58	-0.10772892897883	0.04504502827933599	0.8377855808948972	0.790365923239633	-0.2310598538368113	-0.1141321741407875	-0.3607673648884505	0.8155930473476818	0.8155930473476821	0.02107613009583699	0.1742494923810191	0.3105039730249896	0.0691946623745275	-0.2283689485540252	-0.06764417041540033	-0.3367349802590744	1.277415700733773	-0.01255870360798206	0.2127465792175265	-0.4870908769459661	1.527864368891664	1.52786436889166	-0.2416118969571576	-0.0007743392436901568	0.5563354227674098	0.1523515958694751	-0.1077791317443749	-0.006454334571036282	0.01314509792465229	-0.3723847633673068	0.04064136698969237	-0.007931892071599146	0.1675051732044903	-24.3255405554365	-30.60273666759461	-6.003075826774625	-1.781322009221865	7.070106577340727	-698.1987671319982	58.61050656672145	0.2033400350096501	0.3161372920655982	0.03541375179118632	-1.75282051145285	-0.06478074481785918	-0.4817838568235451	1.612265123374244	-2.235371609777055	-2.235371609777065	0.5719972356097002	-0.04397930618707955	-0.8522527843249752	-0.2198453688434225	9.511591914182053e-09	1.915982127735922e-07	1.314348187637091e-06	1.29388937682254e-06	-2.705323233214265e-07	1.768578580730997e-07	4.231034046050046e-07
0.59	-0.1100023945916464	0.04438438718078296	0.8344207580609134	0.8030511963622863	-0.2311883945532613	-0.1120321270834321	-0.3655570592515578	0.8307581235370014	0.8307581235370047	0.01868602884797785	0.1742417524498485	0.3160241988157291	0.07070741465280227	-0.2262954431798748	-0.06448332668461514	-0.336147501912515	1.259473874660868	-0.01314565419167984	0.2072517881584813	-0.4708118861253338	1.504956207314545	1.504956207314416	-0.2364065755690949	-0.0007664005889461479	0.5476481450805998	0.1501769529662954	-0.1121598385084363	-0.00485638598723033	0.01353851674217882	-0.3757349800419274	0.03744466875294147	-0.007492492506035221	0.1716075821741587	-23.35465117208038	-31.79798369381977	-6.154154261152259	-1.605740729354356	7.514444491967559	-701.6045786332957	58.47424679662076	0.2136793163659423	0.3161130946729859	0.08276180019768523	-1.839600733536032	-0.05478900524713268	-0.5849213737571242	1.641132493861422	-2.347739426862091	-2.347739426880815	0.495282887674024	0.02453301708212961	-0.8862391208216457	-0.2192085791124829	8.600786323610243e-09	1.826785752341313e-07	1.278698368909192e-06	1.2179893007977e-06	-2.61452945341524e-07	1.666323513184019e-07	4.56910210041673e-07
